<svg xmlns="http://www.w3.org/2000/svg" xmlns:xlink="http://www.w3.org/1999/xlink" version="1.1" x="0px" y="0px" viewBox="0 0 96 120" style="enable-background:new 0 0 96 96;" xml:space="preserve"><style type="text/css">
	.st0{fill-rule:evenodd;clip-rule:evenodd;}
</style><path class="st0" d="M57.386,53.431L45.439,56.07l4.664,10.034l9.613-2.127L57.386,53.431L57.386,53.431z M85.113,66.031  c-2.137-1.414-4.953-0.792-6.296,1.392c-1.359,2.209-0.706,5.167,1.456,6.598c2.136,1.414,4.954,0.79,6.296-1.392  C87.927,70.421,87.274,67.461,85.113,66.031L85.113,66.031z M70.91,61.502l-9.376,2.074l-2.33-10.546l11.714-2.588L70.91,61.502  L70.91,61.502z M72.791,37.387l-0.008,10.735l13.126-2.9l2.573-11.301L72.791,37.387L72.791,37.387z M71.158,68.191l-12.842,2.841  c-3.185-2.504-7.791-1.485-9.619,2.13l-6.725,1.489l-3.127-4.148l32.313-7.148V68.191L71.158,68.191z M32.811,65.6l8.03,10.653  c0.242,0.32,0.65,0.441,1.013,0.332l6.195-1.372c-0.115,0.789-0.09,1.615,0.093,2.445c0.78,3.531,4.197,5.86,7.718,5.082  c4.496-0.993,6.416-6.298,3.91-10.122l11.388-2.52v11.784c0,2.073-1.7,3.772-3.773,3.772H36.583c-2.073,0-3.773-1.699-3.773-3.772  V65.6L32.811,65.6z M32.59,62.204l-2.129-2.825l13.112-2.896l4.664,10.035l-10.623,2.35l-4.959-6.579  C32.634,62.26,32.613,62.231,32.59,62.204L32.59,62.204z M72.773,60.932l0.008-10.902l12.67-2.799l-2.65,11.64l-9.923,2.195  C72.848,61.019,72.812,60.973,72.773,60.932L72.773,60.932z M32.207,46.346l-9.915,2.196l6.936,9.201l13.541-2.991L38.24,45.01  L32.207,46.346L32.207,46.346z M59.754,40.271l1.876,1.761c0.375,0.353,0.393,0.944,0.04,1.319l-2.929,3.12  c-0.245,0.261-0.605,0.349-0.928,0.26l0.99,4.48l12.117-2.677l0.008-10.735L59.754,40.271L59.754,40.271z M48.17,40.903  l-15.359,3.401V14.118c0-2.073,1.699-3.773,3.773-3.773h30.802c2.073,0,3.773,1.7,3.773,3.773V35.84l-13.049,2.886l-0.483-0.453  l2.478-2.639c0.483-0.514,0.259-1.407-0.527-1.56l-12.791-2.861c-0.694-0.154-1.291,0.497-1.096,1.169L48.17,40.903L48.17,40.903z   M55.447,44.656l1.536,6.956L44.634,54.34l-4.528-9.743l8.586-1.902l0.675,2.32c0.203,0.699,1.086,0.898,1.573,0.379l0.001,0.001  l2.479-2.641L55.447,44.656L55.447,44.656z M54.018,40.756c-0.375-0.353-0.966-0.335-1.319,0.04l-2,2.13l-2.78-9.55l9.706,2.171  l-1.998,2.129c-0.353,0.375-0.335,0.966,0.04,1.319l4.004,3.758l-1.652,1.76L54.018,40.756L54.018,40.756z M53.478,71.601  c-0.048,0.014-0.097,0.026-0.147,0.032c-1.192,0.284-2.164,1.037-2.776,2.032c-1.358,2.208-0.705,5.168,1.456,6.598  c2.137,1.414,4.953,0.792,6.296-1.392c1.358-2.207,0.705-5.167-1.456-6.598C55.878,71.63,54.68,71.357,53.478,71.601L53.478,71.601z   M44.706,14.392c-1.063,0-1.933,0.87-1.933,1.934c0,1.064,0.87,1.934,1.933,1.934h14.557c1.063,0,1.934-0.87,1.934-1.934  c0-1.064-0.87-1.934-1.934-1.934H44.706L44.706,14.392z M37.791,14.551c-0.98,0-1.774,0.794-1.774,1.774  c0,0.98,0.794,1.774,1.774,1.774c0.98,0,1.774-0.794,1.774-1.774C39.565,15.346,38.771,14.551,37.791,14.551L37.791,14.551z   M3.004,42.752l12.379-2.495c0.362-0.073,0.717,0.076,0.926,0.352l0.002-0.001l5.987,7.943l-2.004,0.443L15.173,42.2L3.369,44.578  L3.004,42.752L3.004,42.752z M76.31,68.959c0.105-0.711,0.324-1.405,0.655-2.053l-5.806,1.285v1.908L76.31,68.959L76.31,68.959z   M92.755,63.403c0.081-0.018,0.161-0.024,0.24-0.021l-0.45,1.976l-4.516,1.003c-0.395-0.6-0.887-1.136-1.46-1.584L92.755,63.403z"/><text x="0" y="111" fill="#000000" font-size="5px" font-weight="bold" font-family="'Helvetica Neue', Helvetica, Arial-Unicode, Arial, Sans-serif">Created by Riski Ayu</text><text x="0" y="116" fill="#000000" font-size="5px" font-weight="bold" font-family="'Helvetica Neue', Helvetica, Arial-Unicode, Arial, Sans-serif">from the Noun Project</text></svg>